<svg width="95" height="105" viewBox="0 0 95 105" fill="none" xmlns="http://www.w3.org/2000/svg">
<g filter="url(#filter0_d_403_69)">
<path d="M22.5085 86C21.2612 85.9977 20.036 85.6697 18.9534 85.0482C16.5155 83.6624 15 80.9722 15 78.0517V18.9487C15 16.02 16.5155 13.338 18.9534 11.9521C20.0618 11.3131 21.3209 10.9844 22.5993 11.0006C23.8776 11.0167 25.1281 11.377 26.2202 12.0438L76.5717 42.2801C77.6211 42.9402 78.4861 43.8568 79.0858 44.9441C79.6854 46.0313 80 47.2535 80 48.4961C80 49.7387 79.6854 50.9609 79.0858 52.0481C78.4861 53.1354 77.6211 54.052 76.5717 54.7121L26.212 84.9565C25.0945 85.6343 23.8144 85.995 22.5085 86Z" fill="url(#paint0_linear_403_69)" shape-rendering="crispEdges"/>
</g>
<defs>
<filter id="filter0_d_403_69" x="0" y="0" width="95" height="105" filterUnits="userSpaceOnUse" color-interpolation-filters="sRGB">
<feFlood flood-opacity="0" result="BackgroundImageFix"/>
<feColorMatrix in="SourceAlpha" type="matrix" values="0 0 0 0 0 0 0 0 0 0 0 0 0 0 0 0 0 0 127 0" result="hardAlpha"/>
<feOffset dy="4"/>
<feGaussianBlur stdDeviation="7.5"/>
<feComposite in2="hardAlpha" operator="out"/>
<feColorMatrix type="matrix" values="0 0 0 0 0 0 0 0 0 0 0 0 0 0 0 0 0 0 0.5 0"/>
<feBlend mode="normal" in2="BackgroundImageFix" result="effect1_dropShadow_403_69"/>
<feBlend mode="normal" in="SourceGraphic" in2="effect1_dropShadow_403_69" result="shape"/>
</filter>
<linearGradient id="paint0_linear_403_69" x1="15" y1="11" x2="80" y2="11" gradientUnits="userSpaceOnUse">
<stop stop-color="white"/>
<stop offset="1" stop-color="white" stop-opacity="0.7"/>
</linearGradient>
</defs>
</svg>
